<svg xmlns="http://www.w3.org/2000/svg" xmlns:xlink="http://www.w3.org/1999/xlink" width="2000" zoomAndPan="magnify" viewBox="0 0 1500 374.999991" height="500" preserveAspectRatio="xMidYMid meet" version="1.2"><defs><clipPath id="b85ca6b21f"><path d="M 550.316406 144.828125 L 654.703125 144.828125 L 654.703125 249.210938 L 550.316406 249.210938 Z M 550.316406 144.828125 "/></clipPath><clipPath id="18da3db38c"><path d="M 602.511719 144.828125 C 573.683594 144.828125 550.316406 168.195312 550.316406 197.019531 C 550.316406 225.84375 573.683594 249.210938 602.511719 249.210938 C 631.335938 249.210938 654.703125 225.84375 654.703125 197.019531 C 654.703125 168.195312 631.335938 144.828125 602.511719 144.828125 Z M 602.511719 144.828125 "/></clipPath><clipPath id="9da15a06e0"><path d="M 559.28125 153.789062 L 644.511719 153.789062 L 644.511719 239.023438 L 559.28125 239.023438 Z M 559.28125 153.789062 "/></clipPath><clipPath id="a50fc44c84"><path d="M 153 62 L 331 62 L 331 253 L 153 253 Z M 153 62 "/></clipPath><clipPath id="9b04bd150d"><path d="M 133.355469 64.957031 L 388.875 24.179688 L 429.648438 279.699219 L 174.132812 320.472656 Z M 133.355469 64.957031 "/></clipPath><clipPath id="851d8e1327"><path d="M 133.355469 64.957031 L 388.875 24.179688 L 429.648438 279.699219 L 174.132812 320.472656 Z M 133.355469 64.957031 "/></clipPath><clipPath id="03142a1f20"><path d="M 237 95 L 395 95 L 395 303 L 237 303 Z M 237 95 "/></clipPath><clipPath id="5f8ffb9abb"><path d="M 133.355469 64.957031 L 388.875 24.179688 L 429.648438 279.699219 L 174.132812 320.472656 Z M 133.355469 64.957031 "/></clipPath><clipPath id="a8c011e4bf"><path d="M 133.355469 64.957031 L 388.875 24.179688 L 429.648438 279.699219 L 174.132812 320.472656 Z M 133.355469 64.957031 "/></clipPath><clipPath id="fae3df851f"><path d="M 187 85 L 345 85 L 345 291 L 187 291 Z M 187 85 "/></clipPath><clipPath id="9a790edf2e"><path d="M 133.355469 64.957031 L 388.875 24.179688 L 429.648438 279.699219 L 174.132812 320.472656 Z M 133.355469 64.957031 "/></clipPath><clipPath id="81b3fe4c0f"><path d="M 133.355469 64.957031 L 388.875 24.179688 L 429.648438 279.699219 L 174.132812 320.472656 Z M 133.355469 64.957031 "/></clipPath><clipPath id="d44b4a4bd9"><path d="M 329 24 L 389 24 L 389 93 L 329 93 Z M 329 24 "/></clipPath><clipPath id="24343dd257"><path d="M 133.355469 64.957031 L 388.875 24.179688 L 429.648438 279.699219 L 174.132812 320.472656 Z M 133.355469 64.957031 "/></clipPath><clipPath id="a0dd186516"><path d="M 133.355469 64.957031 L 388.875 24.179688 L 429.648438 279.699219 L 174.132812 320.472656 Z M 133.355469 64.957031 "/></clipPath></defs><g id="f926a48a70"><g style="fill:#ffffff;fill-opacity:1;"><g transform="translate(423.381758, 256.155738)"><path style="stroke:none" d="M 117.140625 0 L 14.890625 0 L 14.890625 -167.078125 L 46.421875 -167.078125 L 46.421875 -28.25 L 117.140625 -28.25 Z M 117.140625 0 "/></g></g><g style="fill:#ffffff;fill-opacity:1;"><g transform="translate(530.868664, 256.155738)"><path style="stroke:none" d="M 71.171875 2.40625 C 58.898438 2.40625 48.019531 -0.289062 38.53125 -5.6875 C 29.050781 -11.09375 21.644531 -18.648438 16.3125 -28.359375 C 10.988281 -38.066406 8.328125 -49.34375 8.328125 -62.1875 C 8.328125 -74.59375 10.988281 -85.539062 16.3125 -95.03125 C 21.644531 -104.519531 29.015625 -111.960938 38.421875 -117.359375 C 47.835938 -122.765625 58.753906 -125.46875 71.171875 -125.46875 C 83.578125 -125.46875 94.523438 -122.765625 104.015625 -117.359375 C 113.503906 -111.960938 120.910156 -104.519531 126.234375 -95.03125 C 131.566406 -85.539062 134.234375 -74.59375 134.234375 -62.1875 C 134.234375 -49.488281 131.601562 -38.285156 126.34375 -28.578125 C 121.09375 -18.867188 113.722656 -11.273438 104.234375 -5.796875 C 94.742188 -0.328125 83.722656 2.40625 71.171875 2.40625 Z M 71.171875 -22.984375 C 80.796875 -22.984375 88.601562 -26.632812 94.59375 -33.9375 C 100.582031 -41.238281 103.578125 -50.65625 103.578125 -62.1875 C 103.578125 -69.488281 102.222656 -75.984375 99.515625 -81.671875 C 96.816406 -87.367188 93.054688 -91.859375 88.234375 -95.140625 C 83.421875 -98.421875 77.734375 -100.0625 71.171875 -100.0625 C 64.890625 -100.0625 59.265625 -98.457031 54.296875 -95.25 C 49.335938 -92.039062 45.46875 -87.585938 42.6875 -81.890625 C 39.914062 -76.203125 38.53125 -69.632812 38.53125 -62.1875 C 38.53125 -50.507812 41.597656 -41.054688 47.734375 -33.828125 C 53.867188 -26.597656 61.679688 -22.984375 71.171875 -22.984375 Z M 71.171875 -22.984375 "/></g></g><g style="fill:#ffffff;fill-opacity:1;"><g transform="translate(661.561439, 256.155738)"><path style="stroke:none" d="M 69.84375 46.640625 C 61.53125 46.640625 53.320312 45.507812 45.21875 43.25 C 37.113281 40.988281 30.140625 36.9375 24.296875 31.09375 C 18.460938 25.25 14.671875 17.070312 12.921875 6.5625 L 42.703125 6.5625 C 44.597656 12.550781 47.769531 16.894531 52.21875 19.59375 C 56.675781 22.300781 62.476562 23.65625 69.625 23.65625 C 79.695312 23.65625 86.957031 21.351562 91.40625 16.75 C 95.863281 12.15625 98.09375 6.28125 98.09375 -0.875 L 98.09375 -18.171875 C 93.132812 -11.160156 87.878906 -6.414062 82.328125 -3.9375 C 76.785156 -1.457031 70.363281 -0.21875 63.0625 -0.21875 C 52.40625 -0.21875 43.023438 -2.914062 34.921875 -8.3125 C 26.816406 -13.71875 20.503906 -21.09375 15.984375 -30.4375 C 11.460938 -39.78125 9.203125 -50.4375 9.203125 -62.40625 C 9.203125 -74.664062 11.460938 -85.539062 15.984375 -95.03125 C 20.503906 -104.519531 26.816406 -111.960938 34.921875 -117.359375 C 43.023438 -122.765625 52.40625 -125.46875 63.0625 -125.46875 C 70.363281 -125.46875 76.785156 -124.15625 82.328125 -121.53125 C 87.878906 -118.90625 93.132812 -114.160156 98.09375 -107.296875 L 98.09375 -122.84375 L 127.65625 -122.84375 L 127.65625 -7.890625 C 127.65625 6.128906 125.097656 17.113281 119.984375 25.0625 C 114.878906 33.019531 107.945312 38.601562 99.1875 41.8125 C 90.4375 45.03125 80.65625 46.640625 69.84375 46.640625 Z M 70.0625 -25.625 C 76.34375 -25.625 81.851562 -27.226562 86.59375 -30.4375 C 91.34375 -33.644531 95.066406 -38.054688 97.765625 -43.671875 C 100.472656 -49.296875 101.828125 -55.6875 101.828125 -62.84375 C 101.828125 -70 100.472656 -76.382812 97.765625 -82 C 95.066406 -87.625 91.34375 -92.039062 86.59375 -95.25 C 81.851562 -98.457031 76.34375 -100.0625 70.0625 -100.0625 C 63.789062 -100.0625 58.316406 -98.421875 53.640625 -95.140625 C 48.972656 -91.859375 45.359375 -87.40625 42.796875 -81.78125 C 40.242188 -76.164062 38.96875 -69.851562 38.96875 -62.84375 C 38.96875 -55.832031 40.242188 -49.515625 42.796875 -43.890625 C 45.359375 -38.273438 48.972656 -33.828125 53.640625 -30.546875 C 58.316406 -27.265625 63.789062 -25.625 70.0625 -25.625 Z M 70.0625 -25.625 "/></g></g><g style="fill:#ffffff;fill-opacity:1;"><g transform="translate(790.502787, 256.155738)"><path style="stroke:none" d="M 70.953125 2.40625 C 58.390625 2.40625 47.398438 -0.328125 37.984375 -5.796875 C 28.578125 -11.273438 21.28125 -18.757812 16.09375 -28.25 C 10.914062 -37.738281 8.328125 -48.539062 8.328125 -60.65625 C 8.328125 -68.6875 9.566406 -76.566406 12.046875 -84.296875 C 14.523438 -92.035156 18.316406 -99.003906 23.421875 -105.203125 C 28.535156 -111.410156 34.957031 -116.335938 42.6875 -119.984375 C 50.425781 -123.640625 59.550781 -125.46875 70.0625 -125.46875 C 77.945312 -125.46875 85.578125 -124.226562 92.953125 -121.75 C 100.328125 -119.269531 106.929688 -115.4375 112.765625 -110.25 C 118.609375 -105.070312 123.242188 -98.46875 126.671875 -90.4375 C 130.097656 -82.40625 131.8125 -72.84375 131.8125 -61.75 L 131.8125 -55.40625 L 38.96875 -55.40625 C 39.269531 -52.769531 39.859375 -50.175781 40.734375 -47.625 C 41.609375 -45.070312 42.554688 -42.847656 43.578125 -40.953125 C 46.492188 -35.253906 50.394531 -30.832031 55.28125 -27.6875 C 60.175781 -24.550781 65.765625 -22.984375 72.046875 -22.984375 C 79.046875 -22.984375 84.914062 -24.804688 89.65625 -28.453125 C 94.40625 -32.109375 97.726562 -36.421875 99.625 -41.390625 L 129.84375 -41.390625 C 127.507812 -33.503906 123.785156 -26.238281 118.671875 -19.59375 C 113.566406 -12.957031 107.070312 -7.628906 99.1875 -3.609375 C 91.3125 0.398438 81.898438 2.40625 70.953125 2.40625 Z M 40.296875 -77.515625 L 101.59375 -77.515625 C 101.445312 -79.117188 101.046875 -80.941406 100.390625 -82.984375 C 99.734375 -85.035156 98.601562 -87.007812 97 -88.90625 C 94.226562 -93.28125 90.539062 -96.5625 85.9375 -98.75 C 81.34375 -100.945312 76.347656 -102.046875 70.953125 -102.046875 C 65.546875 -102.046875 60.613281 -100.945312 56.15625 -98.75 C 51.707031 -96.5625 48.023438 -93.28125 45.109375 -88.90625 C 43.503906 -87.007812 42.375 -85.035156 41.71875 -82.984375 C 41.0625 -80.941406 40.585938 -79.117188 40.296875 -77.515625 Z M 40.296875 -77.515625 "/></g></g><g style="fill:#ffffff;fill-opacity:1;"><g transform="translate(918.568451, 256.155738)"><path style="stroke:none" d="M 36.5625 0 L 2.84375 0 L 44.890625 -61.96875 L 2.625 -122.84375 L 36.5625 -122.84375 L 63.28125 -81.671875 L 90.65625 -122.84375 L 125.03125 -122.84375 L 81.890625 -61.96875 L 124.8125 0 L 90.65625 0 L 63.5 -41.828125 Z M 36.5625 0 "/></g></g><g clip-rule="nonzero" clip-path="url(#b85ca6b21f)"><g clip-rule="nonzero" clip-path="url(#18da3db38c)"><path style=" stroke:none;fill-rule:nonzero;fill:#ffffff;fill-opacity:1;" d="M 550.316406 144.828125 L 654.703125 144.828125 L 654.703125 249.210938 L 550.316406 249.210938 Z M 550.316406 144.828125 "/></g></g><g clip-rule="nonzero" clip-path="url(#9da15a06e0)"><path style=" stroke:none;fill-rule:nonzero;fill:#282a32;fill-opacity:1;" d="M 644.511719 196.40625 C 612.9375 210.425781 615.917969 207.445312 601.894531 239.023438 C 587.875 207.445312 590.851562 210.425781 559.28125 196.40625 C 590.851562 182.386719 587.875 185.363281 601.894531 153.789062 C 615.917969 185.363281 612.9375 182.386719 644.511719 196.40625 Z M 644.511719 196.40625 "/></g><g style="fill:#ffffff;fill-opacity:1;"><g transform="translate(1260.244341, 255.669431)"><path style="stroke:none" d="M 27.15625 2.40625 C 22.1875 2.40625 17.953125 0.691406 14.453125 -2.734375 C 10.953125 -6.171875 9.203125 -10.367188 9.203125 -15.328125 C 9.203125 -20.003906 10.988281 -24.054688 14.5625 -27.484375 C 18.132812 -30.910156 22.332031 -32.625 27.15625 -32.625 C 31.820312 -32.625 35.832031 -30.910156 39.1875 -27.484375 C 42.550781 -24.054688 44.234375 -20.003906 44.234375 -15.328125 C 44.234375 -10.367188 42.550781 -6.171875 39.1875 -2.734375 C 35.832031 0.691406 31.820312 2.40625 27.15625 2.40625 Z M 27.15625 2.40625 "/></g></g><g style="fill:#caef35;fill-opacity:1;"><g transform="translate(1048.571275, 255.866141)"><path style="stroke:none" d="M 131.21875 0 L 116.28125 0 C 113.488281 0 111.65625 -1.484375 110.78125 -4.453125 L 102.921875 -33.265625 C 102.398438 -36.234375 100.566406 -37.71875 97.421875 -37.71875 L 47.40625 -37.71875 C 44.4375 -37.71875 42.691406 -36.234375 42.171875 -33.265625 L 34.3125 -4.453125 C 33.4375 -1.484375 31.515625 0 28.546875 0 L 13.875 0 C 12.132812 0 10.695312 -0.648438 9.5625 -1.953125 C 8.425781 -3.265625 7.859375 -4.625 7.859375 -6.03125 C 7.859375 -6.550781 7.945312 -7.070312 8.125 -7.59375 L 50.03125 -162.90625 C 50.726562 -165.695312 52.5625 -167.09375 55.53125 -167.09375 L 89.578125 -167.09375 C 90.796875 -167.09375 91.972656 -166.695312 93.109375 -165.90625 C 94.242188 -165.125 94.898438 -164.125 95.078125 -162.90625 L 136.71875 -7.59375 C 136.894531 -7.070312 136.984375 -6.460938 136.984375 -5.765625 C 136.984375 -4.367188 136.367188 -3.054688 135.140625 -1.828125 C 133.921875 -0.609375 132.613281 0 131.21875 0 Z M 92.984375 -70.71875 L 78.3125 -126.234375 C 77.4375 -129.203125 75.515625 -130.6875 72.546875 -130.6875 C 69.578125 -130.6875 67.65625 -129.203125 66.78125 -126.234375 L 52.125 -70.71875 C 51.945312 -70.363281 51.859375 -69.835938 51.859375 -69.140625 C 51.859375 -67.742188 52.378906 -66.429688 53.421875 -65.203125 C 54.472656 -63.984375 55.785156 -63.375 57.359375 -63.375 L 87.734375 -63.375 C 89.304688 -63.375 90.613281 -63.984375 91.65625 -65.203125 C 92.707031 -66.429688 93.234375 -67.742188 93.234375 -69.140625 C 93.234375 -69.835938 93.148438 -70.363281 92.984375 -70.71875 Z M 92.984375 -70.71875 "/></g></g><g style="fill:#caef35;fill-opacity:1;"><g transform="translate(1196.277721, 255.866141)"><path style="stroke:none" d="M 43.734375 0 L 29.078125 0 C 27.328125 0 25.972656 -0.609375 25.015625 -1.828125 C 24.054688 -3.054688 23.578125 -4.367188 23.578125 -5.765625 L 23.578125 -161.59375 C 23.578125 -162.988281 24.054688 -164.253906 25.015625 -165.390625 C 25.972656 -166.523438 27.328125 -167.09375 29.078125 -167.09375 L 43.734375 -167.09375 C 45.304688 -167.09375 46.613281 -166.566406 47.65625 -165.515625 C 48.707031 -164.472656 49.234375 -163.164062 49.234375 -161.59375 L 49.234375 -5.765625 C 49.234375 -4.191406 48.707031 -2.835938 47.65625 -1.703125 C 46.613281 -0.566406 45.304688 0 43.734375 0 Z M 43.734375 0 "/></g></g><g clip-rule="nonzero" clip-path="url(#a50fc44c84)"><g clip-rule="nonzero" clip-path="url(#9b04bd150d)"><g clip-rule="nonzero" clip-path="url(#851d8e1327)"><path style=" stroke:none;fill-rule:nonzero;fill:#f9f5f6;fill-opacity:1;" d="M 184.480469 196.734375 C 184.503906 196.886719 184.53125 197.054688 184.566406 197.203125 L 297.851562 113.226562 L 176.253906 252.714844 C 165.621094 237.972656 158.191406 220.578125 155.132812 201.417969 C 144.660156 135.78125 189.378906 74.089844 255.015625 63.613281 C 281.824219 59.335938 307.972656 64.257812 330.238281 76.070312 L 310.003906 99.289062 C 294.699219 92.636719 277.390625 90.136719 259.699219 92.960938 C 210.269531 100.851562 176.59375 147.304688 184.480469 196.734375 Z M 184.480469 196.734375 "/></g></g></g><g clip-rule="nonzero" clip-path="url(#03142a1f20)"><g clip-rule="nonzero" clip-path="url(#5f8ffb9abb)"><g clip-rule="nonzero" clip-path="url(#a8c011e4bf)"><path style=" stroke:none;fill-rule:nonzero;fill:#f9f5f6;fill-opacity:1;" d="M 392.816406 163.488281 C 403.289062 229.113281 358.570312 290.8125 292.945312 301.289062 C 273.773438 304.347656 254.929688 302.699219 237.613281 297.183594 L 248.296875 279.265625 L 253.386719 270.722656 L 332.316406 138.226562 L 287.777344 272.007812 C 287.945312 271.992188 288.097656 271.964844 288.261719 271.941406 C 337.683594 264.054688 371.355469 217.589844 363.46875 168.167969 C 360.644531 150.46875 352.871094 134.785156 341.796875 122.3125 L 357.554688 95.867188 C 375.714844 113.351562 388.539062 136.679688 392.816406 163.488281 Z M 392.816406 163.488281 "/></g></g></g><g clip-rule="nonzero" clip-path="url(#fae3df851f)"><g clip-rule="nonzero" clip-path="url(#9a790edf2e)"><g clip-rule="nonzero" clip-path="url(#81b3fe4c0f)"><path style=" stroke:none;fill-rule:nonzero;fill:#caef35;fill-opacity:1;" d="M 206.695312 243.179688 L 187.070312 265.703125 C 197.070312 276.128906 208.882812 284.6875 221.902344 290.949219 L 237.199219 265.285156 L 329.308594 110.683594 L 344.601562 85.011719 L 324.964844 107.535156 Z M 206.695312 243.179688 "/></g></g></g><g clip-rule="nonzero" clip-path="url(#d44b4a4bd9)"><g clip-rule="nonzero" clip-path="url(#24343dd257)"><g clip-rule="nonzero" clip-path="url(#a0dd186516)"><path style=" stroke:none;fill-rule:nonzero;fill:#caef35;fill-opacity:1;" d="M 329.402344 61.386719 C 335.332031 64.167969 341.050781 67.363281 346.511719 70.933594 L 369.433594 50.746094 L 357.382812 78.8125 C 362.472656 82.890625 367.285156 87.324219 371.765625 92.089844 L 388.664062 24.214844 Z M 329.402344 61.386719 "/></g></g></g></g></svg>